# xmcd
#
# Track frame offsets:
#	150
#	21977
#	35027
#	48077
#	67729
#	79578
#	102227
#	117903
#	133954
#	154505
#	169279
#	181353
#	191928
#	206179
#	220656
#	236406
#	250133
#
# Disc length: 3577 seconds
#
# Revision: 0
# Processed by: cddbd v1.5.2PL0 Copyright (c) Steve Scherf et al.
# Submitted via: dBpowerAMP V4.0
#
DISCID=ee0df711
DTITLE=Hugo Pena e Gabriel - Ao Vivo 2008
DYEAR=1900
DGENRE=
TTITLE0=Morro de saudade
TTITLE1=Bandidaça
TTITLE2=Mala pronta
TTITLE3=Por enquanto adeus
TTITLE4=Tadim Tadim
TTITLE5=Parece Castigo
TTITLE6=Pra lá de bagdá
TTITLE7=Pot-Pourri de Viola
TTITLE8=Vou te amar (Cigana)
TTITLE9=Meu calor
TTITLE10=Robin Wood da paixão
TTITLE11=Abuso de mulher
TTITLE12=Coisas esotéricas
TTITLE13=Fora do eixo
TTITLE14=Amanhã vazio (Quem sabe)
TTITLE15=Ela é violenta
TTITLE16=Faz de conta
EXTD=
EXTT0=
EXTT1=
EXTT2=
EXTT3=
EXTT4=
EXTT5=
EXTT6=
EXTT7=
EXTT8=
EXTT9=
EXTT10=
EXTT11=
EXTT12=
EXTT13=
EXTT14=
EXTT15=
EXTT16=
PLAYORDER=
